<svg width="30" height="28" viewBox="0 0 30 28" fill="none" xmlns="http://www.w3.org/2000/svg">
<path fill-rule="evenodd" clip-rule="evenodd" d="M1.99998 12.6488H3.99998V18.6576C3.99998 20.5741 4.0021 21.9111 4.13754 22.92C4.26913 23.9002 4.5099 24.4196 4.87919 24.7894C5.24827 25.159 5.76625 25.3999 6.74434 25.5316C7.75135 25.6672 9.08605 25.6693 11 25.6693H18.9999C20.9139 25.6693 22.2485 25.6672 23.2555 25.5316C24.2336 25.3999 24.7516 25.159 25.1207 24.7894C25.49 24.4196 25.7308 23.9002 25.8624 22.92C25.9978 21.9111 25.9999 20.5741 25.9999 18.6576V12.6488H27.9999V18.7307C28 20.5569 28 22.0286 27.8446 23.1861C27.6833 24.3876 27.3383 25.3991 26.536 26.2026C25.7335 27.0063 24.7229 27.3521 23.5224 27.5137C22.3664 27.6694 20.8966 27.6693 19.0732 27.6693H10.9267C9.10335 27.6693 7.6335 27.6694 6.47745 27.5137C5.27703 27.3521 4.26641 27.0063 3.46392 26.2026C2.66164 25.3991 2.31662 24.3876 2.15532 23.1861C1.99993 22.0286 1.99996 20.5569 1.99998 18.7307L1.99998 12.6488Z"/>
<path fill-rule="evenodd" clip-rule="evenodd" d="M7.33332 21.9655C7.33332 21.4132 7.78103 20.9655 8.33332 20.9655H13.6666C14.2189 20.9655 14.6666 21.4132 14.6666 21.9655C14.6666 22.5177 14.2189 22.9655 13.6666 22.9655H8.33332C7.78103 22.9655 7.33332 22.5177 7.33332 21.9655Z"/>
<path fill-rule="evenodd" clip-rule="evenodd" d="M22.6977 0.334043C23.4797 0.294174 24.8418 0.590934 25.8265 1.54811C26.2647 1.97412 26.4799 2.49114 26.5995 2.94732C26.7066 3.35561 26.7531 3.78553 26.7894 4.12112C26.7925 4.14941 26.7955 4.17702 26.7984 4.2039C26.9193 5.30971 27.2797 6.36847 28.1839 7.52686C29.9764 9.82316 29.4207 12.1401 28.1963 13.2859C27.339 14.0882 25.2436 15.7259 22.7073 14.6805C21.6499 14.2448 20.8444 13.6674 20.2879 12.846C20.2297 12.7601 20.175 12.6726 20.1236 12.5837C20.0292 12.6989 19.9313 12.8112 19.8302 12.92C19.0917 13.7148 18.1202 14.3948 17.0217 14.6996C15.9934 14.9849 14.3542 15.1277 12.7412 14.5755C11.704 14.2205 10.7027 13.5848 9.90244 12.5664C9.75196 12.8188 9.57898 13.0622 9.38356 13.2912C8.51475 14.3091 7.19465 15.0471 5.46877 15.0079C5.44588 15.0073 5.42301 15.006 5.40021 15.0039C4.85873 14.9543 4.10339 14.7884 3.37338 14.4524C2.65027 14.1195 1.84875 13.571 1.37478 12.6951C0.972862 11.9524 0.603508 11.19 0.681028 10.2566C0.754796 9.36839 1.21967 8.48798 1.93405 7.41275C2.60611 6.40122 2.93791 5.66813 3.10559 5.13115C3.2688 4.60846 3.28798 4.23665 3.28798 3.91052C3.28798 3.29212 3.48823 2.39175 4.09814 1.6398C4.74523 0.84202 5.77898 0.305958 7.22284 0.372645L22.6977 0.334043ZM23.5324 2.45745C23.1946 2.34578 22.9146 2.32385 22.793 2.33183C22.7721 2.3332 22.7511 2.33392 22.73 2.33397L7.20225 2.3727C7.18428 2.37275 7.16632 2.37231 7.14837 2.37138C6.28948 2.32719 5.87662 2.62205 5.65143 2.89968C5.38484 3.22835 5.28798 3.65651 5.28798 3.91052C5.28798 4.36464 5.25686 4.9517 5.01468 5.72728C4.77695 6.48858 4.34824 7.39318 3.59989 8.51954C2.89386 9.5822 2.70189 10.0883 2.67417 10.4221C2.65019 10.7108 2.73468 11.0059 3.13373 11.7432C3.32453 12.0958 3.70082 12.4014 4.20972 12.6356C4.69551 12.8593 5.20834 12.9736 5.5492 13.009C6.60515 13.0232 7.35542 12.5867 7.86231 11.9928C8.39863 11.3644 8.65418 10.5649 8.65418 9.95325C8.65418 9.46141 9.01184 9.0426 9.49761 8.96558C9.98338 8.88857 10.453 9.17624 10.6052 9.64396C11.1989 11.4694 12.2939 12.3085 13.3889 12.6833C14.5387 13.0769 15.755 12.9755 16.487 12.7724C17.1522 12.5878 17.818 12.1474 18.365 11.5587C18.9141 10.9676 19.2799 10.2956 19.4111 9.72797C19.521 9.25262 19.9579 8.92597 20.445 8.95503C20.932 8.98408 21.327 9.36035 21.3796 9.8454C21.4752 10.727 21.6571 11.3012 21.9437 11.7242C22.2207 12.1331 22.6627 12.4989 23.4694 12.8314C24.7949 13.3778 26.0207 12.5827 26.8297 11.8256C27.2718 11.4119 27.7853 10.2665 26.6074 8.75753C25.4631 7.29169 24.9696 5.87802 24.8103 4.42154L24.8055 4.37808C24.7645 4.00284 24.7328 3.71331 24.665 3.45463C24.598 3.19949 24.5164 3.06379 24.4325 2.98219C24.1835 2.74017 23.8616 2.56631 23.5324 2.45745Z"/>
</svg>
