<svg width="26" height="30" viewBox="0 0 26 30" fill="none" xmlns="http://www.w3.org/2000/svg">
<path fill-rule="evenodd" clip-rule="evenodd" d="M13 0.666748C9.134 0.666748 5.99999 3.80075 5.99999 7.66675C5.99999 11.5327 9.134 14.6667 13 14.6667C16.866 14.6667 20 11.5327 20 7.66675C20 3.80075 16.866 0.666748 13 0.666748ZM7.99999 7.66675C7.99999 4.90532 10.2386 2.66675 13 2.66675C15.7614 2.66675 18 4.90532 18 7.66675C18 10.4282 15.7614 12.6667 13 12.6667C10.2386 12.6667 7.99999 10.4282 7.99999 7.66675Z"/>
<path fill-rule="evenodd" clip-rule="evenodd" d="M21.3049 19.1057C21.0881 18.9833 20.8966 18.8753 20.7415 18.783C16.0028 15.9613 9.99721 15.9613 5.25848 18.783C5.10339 18.8753 4.91183 18.9834 4.69494 19.1058C3.74452 19.642 2.30784 20.4525 1.32362 21.4159C0.708059 22.0184 0.123188 22.8124 0.0168603 23.7851C-0.0962151 24.8196 0.355069 25.7903 1.26043 26.6529C2.82236 28.1409 4.69674 29.3334 7.12115 29.3334H18.8788C21.3032 29.3334 23.1776 28.1409 24.7396 26.6529C25.6449 25.7903 26.0962 24.8196 25.9831 23.7851C25.8768 22.8124 25.2919 22.0184 24.6764 21.4159C23.6921 20.4525 22.2553 19.6419 21.3049 19.1057ZM6.2817 20.5014C10.3899 18.0552 15.61 18.0552 19.7183 20.5014C19.9421 20.6347 20.1874 20.7739 20.4443 20.9196C21.3945 21.4587 22.5039 22.0881 23.2774 22.8451C23.7575 23.3151 23.9622 23.7028 23.995 24.0024C24.021 24.2402 23.9608 24.6324 23.36 25.2048C21.9789 26.5206 20.5754 27.3334 18.8788 27.3334H7.12115C5.42455 27.3334 4.02112 26.5206 2.63999 25.2048C2.03914 24.6324 1.97902 24.2402 2.00502 24.0024C2.03776 23.7028 2.24244 23.3151 2.72261 22.8451C3.49607 22.0881 4.60543 21.4587 5.55557 20.9197C5.81246 20.7739 6.05789 20.6347 6.2817 20.5014Z"/>
</svg>
